Coordinates
version=1
nRows=14
nColumns=24
inDegrees=yes

Units are S.I. units (second, meters, Newtons, ...)
Angles are in degrees.

endheader
time	pelvis_tilt	pelvis_list	pelvis_rotation	pelvis_tx	pelvis_ty	pelvis_tz	hip_flexion_r	hip_adduction_r	hip_rotation_r	knee_angle_r	ankle_angle_r	subtalar_angle_r	mtp_angle_r	hip_flexion_l	hip_adduction_l	hip_rotation_l	knee_angle_l	ankle_angle_l	subtalar_angle_l	mtp_angle_l	lumbar_extension	lumbar_bending	lumbar_rotation
      0.72900000	      1.58989257	     -3.54079630	      7.73743353	     -0.40183817	      1.04471590	      0.29325250	      6.76091018	      9.66719360	     -3.46764598	    -12.11715140	     -0.18082475	    -13.08987102	      8.72956262	     16.36728480	     -6.89404136	     -0.66690880	    -65.78698205	     -7.45753677	     -3.30626525	     -2.64255162	     -6.95006022	      1.73914622	     -3.64555737
      0.73316667	      1.69637899	     -3.43783010	      7.65423673	     -0.39661375	      1.04540984	      0.29382503	      6.25257313	      9.65639101	     -3.32674573	    -12.00598173	      0.00406377	    -12.97957622	      8.59720424	     16.69742230	     -6.83517199	     -0.81418243	    -65.41005531	     -6.63852432	     -3.36096609	     -2.70553253	     -7.13688678	      1.55729914	     -3.44183883
      0.73733333	      1.73501913	     -3.32643644	      7.55882401	     -0.39139464	      1.04599851	      0.29435409	      5.83287534	      9.61709277	     -3.23402515	    -11.92612767	      0.13218318	    -12.91691164	      8.52448550	     17.08062781	     -6.74609185	     -0.97422128	    -64.96762903	     -5.89113810	     -3.57241476	     -2.73354714	     -7.22324518	      1.38182987	     -3.35794301
      0.74150000	      1.82205269	     -3.21397218	      7.46521348	     -0.38618525	      1.04665639	      0.29485285	      5.33791360	      9.58315173	     -3.09346050	    -11.80393257	      0.30937719	    -12.78823771	      8.40210119	     17.38888138	     -6.65323404	     -1.11454108	    -64.45874260	     -5.12767778	     -3.61635557	     -2.78673185	     -7.38714877	      1.22068063	     -3.17820229
      0.74566667	      1.84822368	     -3.09298777	      7.34418578	     -0.38098210	      1.04722234	      0.29534926	      4.92580611	      9.52292479	     -2.98936930	    -11.72913066	      0.58241199	    -12.55566978	      6.96626808	     17.73912051	     -6.54037005	     -1.28228447	    -63.88334106	     -4.42849030	     -3.77000038	     -3.55909568	     -7.45129026	      1.00015215	     -2.77126250
      0.74983333	      1.93638707	     -2.99262974	      7.24250391	     -0.37578477	      1.04784169	      0.29579373	      4.42279879	      9.49464583	     -2.87824533	    -11.57908335	      0.69007272	    -12.49867297	      6.89782623	     18.01141662	     -6.45729558	     -1.43271352	    -63.25956004	     -3.65203112	     -3.74453774	     -3.58020998	     -7.59573313	      0.87124862	     -2.81972839
      0.75400000	      1.99582088	     -2.86081022	      7.11622093	     -0.37060843	      1.04843753	      0.29621940	      3.95277877	      9.42322437	     -2.75301361	    -11.44843314	      0.83884645	    -12.38717037	      6.81384943	     18.27961060	     -6.32390456	     -1.59509623	    -62.55432904	     -2.95725020	     -3.78364551	     -3.61143803	     -7.72317022	      0.68645987	     -2.69152150
      0.75816667	      2.02093043	     -2.73290256	      6.97089719	     -0.36548485	      1.04893818	      0.29661815	      3.53564612	      9.34581351	     -2.62583682	    -11.34463663	      0.98681376	    -12.28645464	      6.75363002	     18.57007970	     -6.18363197	     -1.76388026	    -61.79845015	     -2.27300772	     -3.82336678	     -3.62849514	     -7.82327930	      0.51497976	     -2.57558210
      0.76233333	      2.08944215	     -2.60144971	      6.83227770	     -0.36033129	      1.04950878	      0.29697520	      3.04712471	      9.26665332	     -2.50895085	    -11.19273620	      1.15651437	    -12.13955005	      6.66456781	     18.78595787	     -6.04067372	     -1.92516652	    -60.96922951	     -1.62111250	     -3.81622988	     -3.65928268	     -7.94547182	      0.33246453	     -2.38606783
      0.76650000	      2.14083642	     -2.47359457	      6.67871308	     -0.35523841	      1.05003553	      0.29728558	      2.58807107	      9.18230027	     -2.38850383	    -11.05548989	      1.30055754	    -11.98780912	      6.52592119	     19.00271833	     -5.88614041	     -2.08016065	    -60.08350281	     -0.98127731	     -3.83629579	     -3.71329643	     -8.08065211	      0.17166174	     -2.18022692
      0.77066667	      2.16389203	     -2.32983906	      6.50315026	     -0.35015473	      1.05048814	      0.29759439	      2.16400246	      9.07541275	     -2.25044218	    -10.93245797	      1.46288723	    -11.89576403	      6.45089497	     19.22128139	     -5.71283834	     -2.26061241	    -59.12820817	     -0.38979033	     -3.83623930	     -3.73838499	     -8.16764076	     -0.01563070	     -2.06567767
      0.77483333	      2.20633295	     -2.20046546	      6.33895209	     -0.34506195	      1.05095346	      0.29784773	      1.70305446	      8.98204373	     -2.12079198	    -10.77043470	      1.61712663	    -11.75473196	      6.34343591	     19.40118304	     -5.54497372	     -2.41100431	    -58.11572860	      0.17689651	     -3.84212182	     -3.78061667	     -8.27102060	     -0.17779674	     -1.86814284
      0.77900000	      2.21241676	     -2.06085940	      6.15436685	     -0.34000003	      1.05133047	      0.29808764	      1.29398081	      8.86858355	     -1.98753173	    -10.63355872	      1.77442333	    -11.64129212	      6.24057334	     19.59611946	     -5.35852666	     -2.57717945	    -57.03970984	      0.70150480	     -3.87126852	     -3.82405248	     -8.33809759	     -0.35121466	     -1.70042151
      0.78316667	      2.24235087	     -1.92551491	      5.96662159	     -0.33496203	      1.05172709	      0.29828947	      0.85549006	      8.75798316	     -1.84628956	    -10.48326015	      1.92130076	    -11.52130117	      6.13391777	     19.74258780	     -5.17100057	     -2.73145167	    -55.89893282	      1.19019258	     -3.91637651	     -3.87304371	     -8.44238239	     -0.51184230	     -1.52096223
